HIERARCHY
ROOT Hips
{
	OFFSET 0.00000 0.00000 0.00000
	CHANNELS 6 Xposition Yposition Zposition Zrotation Yrotation Xrotation 
	JOINT LHipJoint
	{
		OFFSET 0 0 0
		CHANNELS 3 Zrotation Yrotation Xrotation
		JOINT LeftUpLeg
		{
			OFFSET 1.28858 -1.83292 1.03970
			CHANNELS 3 Zrotation Yrotation Xrotation
			JOINT LeftLeg
			{
				OFFSET 2.47846 -6.80952 0.00000
				CHANNELS 3 Zrotation Yrotation Xrotation
				JOINT LeftFoot
				{
					OFFSET 2.75274 -7.56311 0.00000
					CHANNELS 3 Zrotation Yrotation Xrotation
					JOINT LeftToeBase
					{
						OFFSET 0.12848 -0.35301 1.68223
						CHANNELS 3 Zrotation Yrotation Xrotation
						End Site
						{
							OFFSET 0.00000 -0.00000 0.87311
						}
					}
				}
			}
		}
	}
	JOINT RHipJoint
	{
		OFFSET 0 0 0
		CHANNELS 3 Zrotation Yrotation Xrotation
		JOINT RightUpLeg
		{
			OFFSET -1.31183 -1.83292 1.03970
			CHANNELS 3 Zrotation Yrotation Xrotation
			JOINT RightLeg
			{
				OFFSET -2.44740 -6.72417 0.00000
				CHANNELS 3 Zrotation Yrotation Xrotation
				JOINT RightFoot
				{
					OFFSET -2.67343 -7.34519 0.00000
					CHANNELS 3 Zrotation Yrotation Xrotation
					JOINT RightToeBase
					{
						OFFSET -0.16914 -0.46471 1.77626
						CHANNELS 3 Zrotation Yrotation Xrotation
						End Site
						{
							OFFSET -0.00000 -0.00000 0.92777
						}
					}
				}
			}
		}
	}
	JOINT LowerBack
	{
		OFFSET 0 0 0
		CHANNELS 3 Zrotation Yrotation Xrotation
		JOINT Spine
		{
			OFFSET 0.01249 2.14252 0.03842
			CHANNELS 3 Zrotation Yrotation Xrotation
			JOINT Spine1
			{
				OFFSET -0.02957 2.14199 -0.03751
				CHANNELS 3 Zrotation Yrotation Xrotation
				JOINT Neck
				{
					OFFSET 0 0 0
					CHANNELS 3 Zrotation Yrotation Xrotation
					JOINT Neck1
					{
						OFFSET -0.01678 1.65709 -0.05476
						CHANNELS 3 Zrotation Yrotation Xrotation
						JOINT Head
						{
							OFFSET 0.07912 1.58331 -0.11843
							CHANNELS 3 Zrotation Yrotation Xrotation
							End Site
							{
								OFFSET 0.03298 1.73940 -0.04271
							}
						}
					}
				}
				JOINT LeftShoulder
				{
					OFFSET 0 0 0
					CHANNELS 3 Zrotation Yrotation Xrotation
					JOINT LeftArm
					{
						OFFSET 3.39556 1.16496 0.08673
						CHANNELS 3 Zrotation Yrotation Xrotation
						JOINT LeftForeArm
						{
							OFFSET 5.23910 -0.00000 -0.00000
							CHANNELS 3 Zrotation Yrotation Xrotation
							JOINT LeftHand
							{
								OFFSET 3.31467 -0.00000 0.00000
								CHANNELS 3 Zrotation Yrotation Xrotation
								JOINT LeftFingerBase
								{
									OFFSET 0 0 0
									CHANNELS 3 Zrotation Yrotation Xrotation
									JOINT LeftHandIndex1
									{
										OFFSET 0.96590 -0.00000 0.00000
										CHANNELS 3 Zrotation Yrotation Xrotation
										End Site
										{
											OFFSET 0.77873 -0.00000 0.00000
										}
									}
								}
								JOINT LThumb
								{
									OFFSET 0 0 0
									CHANNELS 3 Zrotation Yrotation Xrotation
									End Site
									{
										OFFSET 0.79062 -0.00000 0.79062
									}
								}
							}
						}
					}
				}
				JOINT RightShoulder
				{
					OFFSET 0 0 0
					CHANNELS 3 Zrotation Yrotation Xrotation
					JOINT RightArm
					{
						OFFSET -3.27193 1.31331 0.33940
						CHANNELS 3 Zrotation Yrotation Xrotation
						JOINT RightForeArm
						{
							OFFSET -5.30252 -0.00000 0.00000
							CHANNELS 3 Zrotation Yrotation Xrotation
							JOINT RightHand
							{
								OFFSET -3.67875 -0.00000 0.00000
								CHANNELS 3 Zrotation Yrotation Xrotation
								JOINT RightFingerBase
								{
									OFFSET 0 0 0
									CHANNELS 3 Zrotation Yrotation Xrotation
									JOINT RightHandIndex1
									{
										OFFSET -0.59481 -0.00000 0.00000
										CHANNELS 3 Zrotation Yrotation Xrotation
										End Site
										{
											OFFSET -0.47955 -0.00000 0.00000
										}
									}
								}
								JOINT RThumb
								{
									OFFSET 0 0 0
									CHANNELS 3 Zrotation Yrotation Xrotation
									End Site
									{
										OFFSET -0.48687 -0.00000 0.48687
									}
								}
							}
						}
					}
				}
			}
		}
	}
}
MOTION
Frames: 15
Frame Time: .0083333
12.0443 18.2616 27.5469 0 0 0 0 0 0 -21 0 0 0 0 0 0 0 0 0 0 0 0 0 0 21 0 0 0 0 0 0 0 0 0 0 0 0 0 0 0 0 0 0 0 0 0 0 -16 0 0 21 0 0 11 0 0 0 -8 0 0 0 0 0 0 0 0 0 0 0 0 0 0 0 0 0 0 0 0 8 0 0 0 0 0 0 0 0 0 0 0 0 0 0 0 0 0
12.0443 18.2616 27.5469 -177.0550 2.1227 -174.3180 0.0000 0.0000 0.0000 -16.5295 -2.2602 1.6918 0.0312 1.1396 3.1331 -0.0157 -7.6397 -5.0021 4.6680 12.9999 39.3681 0.0000 0.0000 0.0000 25.9008 5.8897 4.6637 -0.0068 -0.5339 1.4670 0.2664 -10.8785 -10.3440 -0.2031 2.9017 -8.0052 3.8418 1.4474 -9.3992 -0.5570 2.0962 -4.9884 -2.5343 1.1777 0.2276 -1.6061 -1.6557 -2.4731 4.4188 -2.2635 0.1657 1.6119 -1.1267 0.5402 -0.0000 -0.0000 0.0000 -84.1087 3.4473 53.2066 11.0126 -18.3075 -1.7799 -0.0000 0.0000 -17.0281 2.7648 -10.7535 -0.5163 -7.1250 0.0000 -0.0000 -17.0263 19.4313 10.8795 -0.0000 -0.0000 0.0000 84.9690 -14.2482 49.6669 -14.3706 23.2621 -2.9729 0.0000 0.0000 3.5627 -6.5812 -43.8406 4.5690 7.1250 -0.0000 -0.0000 45.1864 -69.0299 -28.0070
12.0504 18.2693 27.5568 -176.9230 1.9024 -174.4600 0.0000 0.0000 0.0000 -16.2565 -1.9833 1.6265 0.0336 1.1838 3.2547 -0.0427 -7.7669 -4.4674 4.8458 13.2081 40.1524 0.0000 0.0000 0.0000 26.2019 5.9422 4.8532 -0.0068 -0.5314 1.4601 0.1610 -10.7404 -12.5103 -0.1269 2.2963 -6.3253 3.8567 1.3429 -9.1260 -0.4667 1.9648 -5.0152 -2.4703 1.1077 0.0380 -1.4115 -1.6333 -2.1150 4.1395 -2.2220 -0.2506 1.4928 -1.1145 0.3425 -0.0000 0.0000 0.0000 -83.9152 4.0856 55.8735 10.9812 -18.2594 -1.7700 -0.0000 0.0000 -14.8974 8.4720 -11.9329 -1.7640 -7.1250 0.0000 -0.0000 -13.0221 18.0925 8.5583 -0.0000 0.0000 0.0000 84.9646 -14.2667 49.4445 -14.2309 23.0638 -2.9180 0.0000 0.0000 3.8067 -6.0464 -43.7600 4.1900 7.1250 -0.0000 -0.0000 45.5388 -68.8028 -28.0398
12.0570 18.2743 27.5671 -176.9530 1.6979 -174.5930 0.0000 0.0000 0.0000 -16.1991 -1.7626 1.5749 0.0358 1.2207 3.3563 -0.0639 -7.8968 -4.0525 4.8588 13.2230 40.2090 0.0000 0.0000 0.0000 26.2930 5.9699 5.0317 -0.0065 -0.5190 1.4260 0.0001 -10.2135 -14.5443 -0.0294 1.1073 -3.0442 3.7143 1.2439 -8.8492 -0.4373 1.8513 -5.0345 -2.3783 1.0483 -0.1457 -1.4863 -1.6411 -2.0645 4.1638 -2.2310 -0.2060 1.5137 -1.1184 0.3494 -0.0000 0.0000 0.0000 -83.9588 4.1681 55.7136 10.9007 -18.1360 -1.7449 -0.0000 0.0000 -14.8613 8.6211 -12.0578 -1.8140 -7.1250 0.0000 -0.0000 -12.9130 17.9625 8.5208 -0.0000 0.0000 0.0000 84.9577 -14.2619 49.1858 -14.0808 22.8500 -2.8594 0.0000 0.0000 4.1379 -5.4505 -43.9780 3.7907 7.1250 -0.0000 -0.0000 46.5293 -68.7563 -28.6981
12.0630 18.2788 27.5769 -176.9410 1.4802 -174.7010 0.0000 0.0000 0.0000 -16.0875 -1.5601 1.4890 0.0386 1.2689 3.4890 -0.0849 -8.0574 -3.6553 4.8605 13.2250 40.2166 0.0000 0.0000 0.0000 26.4281 5.9973 5.1881 -0.0060 -0.5011 1.3769 -0.1859 -9.6557 -16.5226 -0.0003 0.1039 -0.2854 3.6354 1.1584 -8.5938 -0.4241 1.7500 -5.0533 -2.3362 0.9943 -0.3141 -1.6105 -1.6475 -2.0841 4.3143 -2.2424 -0.0788 1.5828 -1.1222 0.3963 0.0000 0.0000 0.0000 -83.8825 4.2730 55.7935 10.9028 -18.1391 -1.7455 -0.0000 0.0000 -15.3786 7.8300 -11.4363 -1.5619 -7.1250 0.0000 -0.0000 -13.4926 18.6083 8.7266 0.0000 0.0000 0.0000 84.9580 -14.2718 48.9923 -13.9589 22.6760 -2.8123 0.0000 0.0000 4.3814 -5.3180 -43.8534 3.6899 7.1250 -0.0000 -0.0000 46.4107 -68.6311 -28.4914
12.0686 18.2916 27.5917 -177.4120 1.1619 -174.8400 0.0000 0.0000 0.0000 -16.5691 -1.2348 1.2824 0.0444 1.3602 3.7403 -0.1209 -8.2447 -2.8422 5.0274 13.4145 40.9407 0.0000 0.0000 0.0000 25.9379 5.7552 5.2450 -0.0057 -0.4893 1.3446 -0.6261 -8.4142 -20.3018 -0.0625 -1.6130 4.4372 3.0631 1.0136 -8.2595 -0.5542 1.6071 -5.1025 -2.1699 0.9268 -0.5651 -1.5261 -1.6757 -1.9095 4.2669 -2.2794 -0.1798 1.5541 -1.1439 0.3350 -0.0000 -0.0000 0.0000 -83.7461 4.4982 56.0552 10.9713 -18.2443 -1.7669 -0.0000 0.0000 -15.6384 5.9273 -9.6920 -1.0013 -7.1250 0.0000 -0.0000 -14.9389 20.3758 9.1134 -0.0000 -0.0000 0.0000 84.9640 -14.3499 48.8023 -13.8663 22.5432 -2.7766 0.0000 0.0000 4.5661 -5.6781 -43.3559 3.9050 7.1250 -0.0000 -0.0000 45.1152 -68.4120 -27.3675
12.0665 18.3156 27.6056 -178.9200 0.8133 -174.8650 0.0000 0.0000 0.0000 -18.4280 -0.9541 0.9299 0.0507 1.4532 3.9967 -0.1563 -8.4060 -1.9055 5.2157 13.6226 41.7463 0.0000 0.0000 0.0000 24.0001 4.9555 4.9123 -0.0058 -0.4908 1.3486 -0.6479 -8.1107 -20.2566 -0.1094 -2.1327 5.8726 1.4767 0.7766 -8.0800 -0.9472 1.4121 -5.1893 -1.7049 0.8602 -0.7823 -1.4970 -1.7011 -1.6775 4.2029 -2.3096 -0.2888 1.5306 -1.1622 0.2619 -0.0000 0.0000 0.0000 -83.7099 4.7112 56.2097 10.9811 -18.2593 -1.7700 -0.0000 0.0000 -15.3407 7.3377 -10.7121 -1.3711 -7.1250 0.0000 -0.0000 -13.8797 19.3368 8.7600 -0.0000 0.0000 0.0000 84.8820 -14.4969 48.6633 -13.8417 22.5080 -2.7672 0.0000 0.0000 4.7146 -5.9753 -43.1351 4.0933 7.1250 -0.0000 -0.0000 44.4153 -68.3556 -26.8271
12.0656 18.3154 27.6041 -178.9380 0.8368 -174.8390 0.0000 0.0000 0.0000 -18.4460 -0.8940 0.8943 0.0501 1.4439 3.9711 -0.1575 -8.4139 -1.8742 5.1642 13.5664 41.5275 0.0000 0.0000 0.0000 23.9495 4.8981 4.8209 -0.0063 -0.5143 1.4132 -0.6558 -8.1727 -20.3886 -0.0951 -1.9884 5.4735 1.4684 0.7947 -8.1113 -0.9713 1.4394 -5.2038 -1.7226 0.8749 -0.7785 -1.5614 -1.7136 -1.7268 4.2761 -2.3291 -0.1701 1.5642 -1.1700 0.3094 -0.0000 0.0000 0.0000 -83.6906 4.7729 56.2221 10.9023 -18.1384 -1.7454 -0.0000 0.0000 -15.2681 7.6658 -10.4805 -1.4025 -7.1250 0.0000 -0.0000 -13.6673 19.5514 8.5502 -0.0000 0.0000 0.0000 84.8415 -14.5961 48.5008 -13.8410 22.5069 -2.7669 0.0000 0.0000 4.8364 -5.8765 -43.3219 4.0393 7.1250 -0.0000 -0.0000 44.8611 -68.4520 -27.2284
12.0641 18.3176 27.6043 -179.0100 0.7625 -174.8350 0.0000 0.0000 0.0000 -18.5588 -0.9354 0.8856 0.0506 1.4510 3.9905 -0.1605 -8.4390 -1.8073 5.1265 13.5248 41.3662 0.0000 0.0000 0.0000 23.8283 4.7680 4.7791 -0.0062 -0.5091 1.3990 -0.6617 -8.0865 -20.3739 -0.1010 -2.0494 5.6421 1.4183 0.7798 -8.1242 -1.0279 1.4219 -5.1862 -1.7536 0.8665 -0.7535 -1.6198 -1.7044 -1.9192 4.3836 -2.3231 0.0278 1.6066 -1.1630 0.4053 -0.0000 0.0000 0.0000 -83.6402 4.7667 56.1064 10.7831 -17.9550 -1.7085 -0.0000 0.0000 -15.2058 8.2464 -10.3252 -1.4880 -7.1250 0.0000 -0.0000 -13.2727 19.6823 8.2492 -0.0000 0.0000 0.0000 84.8888 -14.6441 48.1438 -13.8080 22.4596 -2.7543 0.0000 0.0000 5.0920 -5.6330 -43.4965 3.8838 7.1250 -0.0000 -0.0000 45.4251 -68.4929 -27.6619
12.0605 18.3202 27.6054 -179.1190 0.7040 -174.8050 0.0000 0.0000 0.0000 -18.7239 -0.9878 0.8497 0.0510 1.4578 4.0095 -0.1618 -8.5650 -1.9609 4.6869 13.0223 39.4521 0.0000 0.0000 0.0000 23.6585 4.6452 4.7030 -0.0061 -0.5056 1.3893 -0.6981 -7.8216 -20.5118 -0.1513 -2.5066 6.9078 1.3442 0.7439 -8.1550 -1.0812 1.3799 -5.1806 -1.7694 0.8472 -0.7325 -1.6032 -1.6808 -2.0765 4.3858 -2.2965 0.1953 1.6031 -1.1461 0.4827 0.0000 -0.0000 0.0000 -83.6030 4.7840 55.8574 10.6646 -17.7723 -1.6721 -0.0000 0.0000 -14.9284 8.2622 -10.5262 -1.5196 -7.1250 0.0000 -0.0000 -13.2488 19.4842 8.2940 0.0000 -0.0000 0.0000 84.9139 -14.6624 47.8499 -13.7705 22.4056 -2.7400 0.0000 0.0000 5.2470 -5.7120 -43.4668 3.9364 7.1250 -0.0000 -0.0000 45.2931 -68.4980 -27.5744
12.0655 18.3162 27.6042 -178.7980 0.7598 -174.8600 0.0000 0.0000 0.0000 -18.2527 -0.8321 0.8785 0.0505 1.4499 3.9877 -0.1603 -8.8012 -2.3601 3.7396 11.8056 35.0476 0.0000 0.0000 0.0000 24.1479 4.9720 4.8880 -0.0063 -0.5133 1.4105 -0.7734 -7.9345 -21.3271 -0.1790 -2.7249 7.5138 1.5731 0.7684 -8.1171 -0.9767 1.3900 -5.1477 -1.7896 0.8456 -0.7172 -1.5309 -1.6878 -2.0372 4.3735 -2.3054 0.0735 1.5870 -1.1530 0.4374 0.0000 0.0000 0.0000 -83.5913 4.8306 55.6021 10.5945 -17.6640 -1.6508 -0.0000 0.0000 -14.7354 7.2558 -10.4722 -1.3257 -7.1250 0.0000 -0.0000 -13.9532 19.5743 8.7327 0.0000 0.0000 0.0000 84.8931 -14.6500 47.7013 -13.7314 22.3494 -2.7251 0.0000 0.0000 5.1540 -5.8761 -43.5990 4.0597 7.1250 -0.0000 -0.0000 45.3896 -68.6398 -27.7781
12.0652 18.3149 27.6037 -178.6360 0.7765 -174.8990 0.0000 0.0000 0.0000 -18.0282 -0.7260 0.9018 0.0501 1.4441 3.9717 -0.1585 -8.9395 -2.6101 3.1778 10.9774 32.2036 0.0000 0.0000 0.0000 24.3690 5.0361 4.9194 -0.0069 -0.5371 1.4760 -0.8128 -7.9755 -21.7258 -0.1654 -2.6202 7.2231 1.7074 0.7962 -8.1266 -0.9355 1.4104 -5.0958 -1.8200 0.8512 -0.6559 -1.4704 -1.7401 -1.9295 4.4227 -2.3730 -0.1919 1.5930 -1.1924 0.3391 -0.0000 -0.0000 0.0000 -83.5620 4.8369 55.4947 10.5640 -17.6169 -1.6415 -0.0000 0.0000 -14.7165 6.7885 -10.3762 -1.2282 -7.1250 0.0000 -0.0000 -14.2851 19.6840 8.9176 -0.0000 -0.0000 0.0000 84.9180 -14.5953 47.4621 -13.6490 22.2306 -2.6939 0.0000 0.0000 5.2203 -5.8613 -43.8398 4.0672 7.1250 -0.0000 -0.0000 45.8704 -68.7967 -28.2688
12.0662 18.3159 27.6044 -178.6550 0.7496 -174.8990 0.0000 0.0000 0.0000 -18.0513 -0.7618 0.9158 0.0497 1.4390 3.9577 -0.1554 -8.9638 -2.7347 3.0490 10.7740 31.5215 0.0000 0.0000 0.0000 24.3573 5.0503 4.9025 -0.0071 -0.5431 1.4923 -0.8107 -7.9338 -21.6734 -0.1748 -2.6931 7.4254 1.6599 0.7902 -8.1679 -0.9363 1.4017 -5.0615 -1.7934 0.8474 -0.5988 -1.4604 -1.7714 -2.0154 4.4439 -2.4172 -0.1611 1.5967 -1.2136 0.3647 -0.0000 -0.0000 0.0000 -83.5419 4.8086 55.3219 10.5262 -17.5583 -1.6301 -0.0000 0.0000 -14.5519 7.2137 -10.8455 -1.3643 -7.1250 0.0000 -0.0000 -13.9567 19.2109 8.8520 -0.0000 -0.0000 0.0000 84.8983 -14.5740 47.2654 -13.5885 22.1434 -2.6711 0.0000 0.0000 5.4122 -5.6467 -43.9430 3.9251 7.1250 -0.0000 -0.0000 46.2754 -68.7963 -28.5563
12.0669 18.3152 27.6057 -178.6360 0.6772 -174.8990 0.0000 0.0000 0.0000 -18.0235 -0.8059 0.9211 0.0497 1.4389 3.9572 -0.1571 -8.9518 -2.6700 3.0537 10.7815 31.5465 0.0000 0.0000 0.0000 24.3979 5.0382 4.9148 -0.0068 -0.5332 1.4650 -0.8114 -7.8884 -21.6440 -0.2005 -2.8830 7.9531 1.6287 0.7577 -8.1366 -0.9006 1.3614 -5.0710 -1.7429 0.8282 -0.6288 -1.5384 -1.7511 -2.1475 4.4642 -2.3923 0.0254 1.6155 -1.1968 0.4454 0.0000 -0.0000 0.0000 -83.5773 4.8454 54.9706 10.4422 -17.4282 -1.6048 -0.0000 0.0000 -14.1532 7.6811 -11.3191 -1.5163 -7.1250 0.0000 -0.0000 -13.6026 18.7294 8.7643 0.0000 -0.0000 0.0000 84.7734 -14.6297 47.2322 -13.5753 22.1242 -2.6660 0.0000 0.0000 5.4587 -5.5106 -43.8242 3.8219 7.1250 -0.0000 -0.0000 46.1722 -68.6735 -28.3635
12.0687 18.3144 27.6053 -178.7330 0.6622 -174.8700 0.0000 0.0000 0.0000 -18.1286 -0.8181 0.8850 0.0498 1.4399 3.9602 -0.1586 -8.9180 -2.5765 3.0835 10.8290 31.7054 0.0000 0.0000 0.0000 24.2977 5.1230 4.9402 -0.0066 -0.5254 1.4437 -0.8210 -7.9107 -21.7495 -0.2067 -2.9273 8.0764 1.4476 0.7257 -8.1546 -0.8921 1.3326 -5.0797 -1.6344 0.8186 -0.6324 -1.5607 -1.7389 -2.2499 4.4346 -2.3775 0.1700 1.6090 -1.1860 0.5069 0.0000 -0.0000 0.0000 -83.6802 4.8964 54.4327 10.2734 -17.1661 -1.5547 -0.0000 0.0000 -13.8222 7.8582 -11.0633 -1.5171 -7.1250 0.0000 -0.0000 -13.4959 18.9729 8.6162 0.0000 -0.0000 0.0000 84.6909 -14.6416 47.1700 -13.5357 22.0671 -2.6512 0.0000 0.0000 5.5262 -5.7166 -43.5704 3.9470 7.1250 -0.0000 -0.0000 45.4867 -68.5694 -27.7788
